<?xml version="1.0" encoding="UTF-8" standalone="no"?>
<svg width="988px" height="968px" viewBox="0 0 988 968" version="1.1" xmlns="http://www.w3.org/2000/svg" xmlns:xlink="http://www.w3.org/1999/xlink" xmlns:sketch="http://www.bohemiancoding.com/sketch/ns">
    <!-- Generator: Sketch 3.5.2 (25235) - http://www.bohemiancoding.com/sketch -->
    <title>Group</title>
    <desc>Created with Sketch.</desc>
    <defs></defs>
    <g id="Page-1" stroke="none" stroke-width="1" fill="none" fill-rule="evenodd" sketch:type="MSPage">
        <g id="1024-copy-4" sketch:type="MSArtboardGroup" transform="translate(-142.000000, -134.000000)" stroke-linecap="round" stroke="#FFFFFF" stroke-width="20">
            <g id="Group" sketch:type="MSLayerGroup" transform="translate(152.000000, 143.000000)">
                <path d="M224.5,404 L741.557312,404" id="Path-18" sketch:type="MSShapeGroup"></path>
                <path d="M336.5,186 L642.418701,186" id="Path-19" sketch:type="MSShapeGroup"></path>
                <path d="M315,1 L639.222137,1" id="Path-20" sketch:type="MSShapeGroup"></path>
                <path d="M296.5,169.5 L153.5,112.5" id="Path-21" sketch:type="MSShapeGroup"></path>
                <path d="M278.5,8.5 L136.5,80.5" id="Path-22" sketch:type="MSShapeGroup"></path>
                <path d="M110.5,110.5 L0.5,232.5" id="Path-23" sketch:type="MSShapeGroup"></path>
                <path d="M171.5,397.5 L17.5,264.5" id="Path-24" sketch:type="MSShapeGroup"></path>
                <path d="M298.5,203.5 L206.5,379.5" id="Path-25" sketch:type="MSShapeGroup"></path>
                <path d="M484.5,948.5 L20,325" id="Path-26" sketch:type="MSShapeGroup"></path>
                <path d="M483.5,942.5 L196.5,431.5" id="Path-27" sketch:type="MSShapeGroup"></path>
                <path d="M820.5,176.5 L674.5,111.5" id="Path-21" sketch:type="MSShapeGroup" transform="translate(747.500000, 144.000000) scale(-1, 1) translate(-747.500000, -144.000000) "></path>
                <path d="M833.5,7.5 L672.5,81.5" id="Path-22" sketch:type="MSShapeGroup" transform="translate(753.000000, 44.500000) scale(-1, 1) translate(-753.000000, -44.500000) "></path>
                <path d="M967.5,113.5 L862.5,237.5" id="Path-23" sketch:type="MSShapeGroup" transform="translate(915.000000, 175.500000) scale(-1, 1) translate(-915.000000, -175.500000) "></path>
                <path d="M951.5,390.5 L807.5,271.5" id="Path-24" sketch:type="MSShapeGroup" transform="translate(879.500000, 331.000000) scale(-1, 1) translate(-879.500000, -331.000000) "></path>
                <path d="M771.5,208.5 L673.5,376.5" id="Path-25" sketch:type="MSShapeGroup" transform="translate(722.500000, 292.500000) scale(-1, 1) translate(-722.500000, -292.500000) "></path>
                <path d="M952.5,944.5 L488,317" id="Path-26" sketch:type="MSShapeGroup" transform="translate(720.500000, 631.000000) scale(-1, 1) translate(-720.500000, -631.000000) "></path>
                <path d="M776.5,941.5 L483.5,428.5" id="Path-27" sketch:type="MSShapeGroup" transform="translate(630.000000, 685.000000) scale(-1, 1) translate(-630.000000, -685.000000) "></path>
            </g>
        </g>
    </g>
</svg>